<?xml version="1.0" standalone="no"?>
<!DOCTYPE svg PUBLIC "-//W3C//DTD SVG 20010904//EN"
 "http://www.w3.org/TR/2001/REC-SVG-20010904/DTD/svg10.dtd">
<svg version="1.0" xmlns="http://www.w3.org/2000/svg"
 width="1024.000000pt" height="1024.000000pt" viewBox="0 0 1024.000000 1024.000000"
 preserveAspectRatio="xMidYMid meet">

<g transform="translate(0.000000,1024.000000) scale(0.100000,-0.100000)"
fill="#CA6924" stroke="none">
<path d="M5010 8783 c-235 -10 -572 -69 -833 -144 -180 -52 -452 -159 -635
-249 -536 -265 -937 -588 -1298 -1046 -449 -570 -709 -1220 -774 -1939 -14
-154 -14 -566 0 -715 79 -849 451 -1635 1064 -2245 300 -299 600 -507 1006
-699 513 -243 994 -358 1555 -373 886 -23 1768 268 2445 808 197 157 467 436
628 646 181 238 376 586 490 873 81 204 180 577 211 799 60 413 52 893 -19
1261 -70 360 -209 749 -375 1052 -184 333 -381 597 -648 866 -226 228 -439
395 -721 565 -537 323 -1111 503 -1711 537 -172 9 -239 10 -385 3z m510 -1114
c575 -52 1160 -269 1595 -593 386 -288 657 -657 790 -1079 106 -334 105 -628
-4 -941 l-31 -89 0 -707 c0 -768 -2 -798 -56 -965 -156 -477 -528 -806 -1044
-924 -174 -39 -195 -40 -1590 -41 -1463 -2 -1402 -4 -1610 46 -105 26 -309
110 -408 168 -325 192 -527 461 -630 836 l-26 95 -6 755 -5 755 -37 105 c-48
138 -68 239 -75 385 -13 281 78 612 253 921 63 109 209 305 310 413 503 539
1449 899 2299 875 88 -3 212 -9 275 -15z"/>
<path d="M5020 7304 c-19 -2 -78 -9 -130 -14 -538 -60 -1073 -258 -1430 -530
-353 -268 -614 -664 -676 -1025 -23 -128 -15 -285 19 -390 62 -190 226 -357
427 -434 164 -63 83 -61 1964 -61 1629 0 1715 1 1801 19 181 37 288 93 406
210 69 69 94 103 128 171 23 47 49 119 57 160 60 279 -53 648 -295 965 -143
187 -300 332 -512 472 -357 235 -758 378 -1233 438 -117 15 -455 27 -526 19z
m611 -409 l39 -7 2 -401 c2 -221 2 -448 0 -503 -8 -247 62 -454 152 -454 45 0
76 27 115 100 64 120 71 186 71 707 l0 462 87 -30 c48 -16 122 -44 165 -62
l77 -32 3 -410 3 -410 33 -67 c51 -104 103 -135 169 -101 40 21 94 97 114 163
7 20 14 157 18 318 l6 284 68 -60 c200 -177 382 -447 434 -642 10 -37 17 -101
17 -150 0 -70 -5 -95 -26 -141 -31 -68 -86 -131 -144 -165 -94 -55 -39 -54
-1838 -54 -1719 0 -1739 0 -1833 41 -80 34 -168 134 -194 221 -17 56 -12 172
11 254 46 168 208 423 372 586 140 139 128 155 128 -161 0 -153 5 -292 11
-319 24 -113 109 -204 174 -188 45 11 100 76 126 148 22 61 23 75 27 455 l3
392 57 27 c47 21 253 94 268 94 2 0 4 -219 4 -486 0 -458 1 -492 21 -575 22
-97 65 -173 110 -198 24 -13 30 -12 65 6 30 15 46 34 71 84 66 130 66 129 71
720 l4 537 31 7 c83 17 207 35 250 35 l47 0 0 -529 c0 -572 0 -569 55 -653 35
-52 76 -72 120 -58 46 15 98 75 126 146 l24 59 3 520 3 521 121 -12 c66 -7
138 -16 159 -19z"/>
<path d="M2872 4108 l4 -573 28 -89 c69 -225 217 -428 399 -549 88 -59 230
-122 342 -153 l100 -28 1380 -4 c987 -2 1401 0 1455 8 463 69 761 321 887 748
15 50 18 126 21 629 l3 572 -103 -53 c-113 -57 -202 -88 -329 -114 -78 -16
-222 -17 -1889 -17 l-1805 0 -95 24 c-130 32 -232 72 -319 126 -40 25 -75 45
-78 45 -2 0 -3 -258 -1 -572z m956 172 c47 -29 72 -76 72 -136 0 -148 -201
-188 -271 -54 -51 95 18 210 126 210 22 0 54 -9 73 -20z m2800 -10 c93 -57 97
-197 6 -256 -38 -25 -112 -23 -156 4 -37 23 -78 90 -78 127 0 34 41 104 73
124 42 27 111 27 155 1z m-1372 -290 c65 -64 65 -157 0 -217 -70 -65 -182 -40
-225 51 -26 53 -26 69 0 122 29 61 71 86 137 81 44 -3 59 -10 88 -37z m-706
-69 c95 -67 93 -209 -3 -254 -105 -50 -217 20 -217 134 0 86 81 156 165 142
17 -2 41 -12 55 -22z m2353 -217 c44 -32 70 -90 64 -140 -6 -59 -30 -92 -84
-116 -76 -33 -155 -2 -193 77 -33 67 -10 141 56 187 37 24 118 21 157 -8z
m-905 -164 c51 -31 74 -76 69 -137 -5 -66 -28 -100 -84 -125 -55 -24 -99 -18
-143 19 -77 64 -81 164 -8 229 12 12 30 24 38 27 34 12 96 6 128 -13z m-2187
-153 c74 -50 98 -126 61 -196 -69 -136 -272 -83 -272 71 0 112 123 185 211
125z m1407 -87 c53 -32 74 -75 69 -143 -3 -46 -9 -63 -32 -87 -61 -64 -141
-64 -205 0 -49 49 -59 94 -35 156 32 84 128 119 203 74z"/>
</g>
</svg>
